<?xml version="1.0" encoding="utf-8"?>
<!-- Generator: Adobe Illustrator 25.0.0, SVG Export Plug-In . SVG Version: 6.00 Build 0)  -->
<svg version="1.1" xmlns="http://www.w3.org/2000/svg" xmlns:xlink="http://www.w3.org/1999/xlink" x="0px" y="0px"
	 viewBox="0 0 200.9 128" style="enable-background:new 0 0 200.9 128;" xml:space="preserve">
<style type="text/css">
	.st0{fill:#A2A2A2;}
	.st1{fill:#FFFFFF;}
	.st2{fill:#BBBBBB;}
</style>
<g id="Layer_1">
	<g>
		<path class="st0" d="M99,114.6L88.9,1.8h110.5l-10.1,112.8l-45.2,12.5C144.1,127.1,99,114.6,99,114.6z"/>
		<path class="st1" d="M144.2,51.9h18.3l1.3-14.2h-19.6V23.9h34.7l-0.3,3.7l-3.4,38.1h-30.9C144.2,65.8,144.2,51.9,144.2,51.9z"/>
		<path class="st1" d="M144.2,87.8L144.2,87.8l-15.5-4.1l-1-11h-13.9l1.9,21.7l28.3,7.9l0.1,0V87.8z"/>
		<path class="st1" d="M161.3,65.2l-1.7,18.5l-15.4,4.2v14.4l28.4-7.9l0.2-2.3l2.4-26.9H161.3z"/>
		<path class="st1" d="M144.2,23.9v13.8h-33.4l-0.3-3.1l-0.6-7l-0.3-3.7C109.6,23.9,144.2,23.9,144.2,23.9z M144.2,51.9v13.8h-15.2
			l-0.3-3.1l-0.6-7l-0.3-3.7H144.2z"/>
	</g>
</g>
<g id="Layer_2">
	<g>
		<path class="st2" d="M12,113.9L2,1.7h109.9l-10,112.2l-45,12.5L12,113.9z"/>
	</g>
	<path class="st1" d="M57,52.5H38.8l-1.3-14.1H57V24.6H22.5l0.3,3.7l3.4,37.9H57V52.5z M57,88.2L57,88.2l-15.4-4.1l-1-11H26.8
		l1.9,21.6l28.2,7.8l0.1,0L57,88.2z"/>
	<path class="st1" d="M56.9,52.5v13.8h16.9l-1.6,17.8l-15.3,4.1v14.3l28.2-7.8l0.2-2.3l3.2-36.2l0.3-3.7h-3.7H56.9z M56.9,24.6v13.8
		h33.2l0.3-3.1l0.6-7l0.3-3.7H56.9z"/>
</g>
</svg>
