<?xml version="1.0" encoding="utf-8"?>
<!-- Generator: Adobe Illustrator 25.0.0, SVG Export Plug-In . SVG Version: 6.00 Build 0)  -->
<svg version="1.1" id="Layer_1" xmlns="http://www.w3.org/2000/svg" xmlns:xlink="http://www.w3.org/1999/xlink" x="0px" y="0px"
	 viewBox="0 0 551.8 462" style="enable-background:new 0 0 551.8 462;" xml:space="preserve">
<style type="text/css">
	.st0{fill:#FFCC2E;}
</style>
<path class="st0" d="M32.7,460.9c24.4-68,48.7-135.9,73.1-203.9c-35-0.8-70-1.5-104.9-2.3c17.7-42.3,36.2-85.2,55.5-128.7
	C75.2,83.6,94.2,42,113.1,1.4c160-0.4,276.5-0.4,297-0.3c3,0,13.6,0.1,27.2,1.8c8.2,1,17.3,2.2,28.5,5.7c3,0.9,14.6,4.8,25.5,11.1
	c26.3,15.3,38.9,41.4,40.6,45.2c23.5,51.3-7.7,101.9-9.2,104.2c-17.3,26.9-41.8,39-53.3,43.7c9.5,2.3,26.3,7.6,42.8,20.9
	c3.5,2.8,24.8,20.6,34.7,50.6c18,54.6-18.5,106.5-23.5,113.4c-30.2,41.6-73.6,54.9-91.5,59c-2.9,0.7-6,1.3-6,1.3
	c-3.1,0.7-25.4,3.7-30.3,4c-14.5,1-219.8,0.3-305.9,0c42-44.9,84.1-89.8,126.1-134.7c-3,18-6,36-9,54c91.1-1.3,157.5-2.3,169.5-2.5
	c1.2,0,4.5-0.1,8.7-0.5c4.3-0.4,13.4-1.4,23.7-5.1c5.9-2.1,13.1-4.7,20.4-10.7c12-9.9,16.4-22.4,18.1-27.6c2.1-6.3,6.6-19.4,1.8-35
	c-1.4-4.5-4.4-12.2-11-19.1c-14.8-15.8-35.7-16.1-41.8-15.8c-0.3,0-0.6,0-0.8,0c-0.2,0-0.3,0-0.3,0c-0.4,0-39.1-0.6-128.4-1.9
	c18-24,35.9-48,53.9-72c34-0.7,59.9-5.1,72.9-9.1c6.8-2.1,17.6-5.5,27.5-14.9c0.7-0.6,1.7-1.7,3-3c4.8-5.2,12.5-15.3,15-29.8
	c0.9-5.3,2.8-16.7-3.1-28.3c-9.4-18.4-31-21.8-33.7-22.3C345.2,83.5,288,83.2,230.9,83c-18.1,36-36.1,72-54.2,108
	c29.9,0,59.7,0.1,89.6,0.1C188.4,281,110.6,370.9,32.7,460.9z"/>
</svg>
