<?xml version="1.0" encoding="utf-8"?>
<!-- Generator: Adobe Illustrator 25.0.0, SVG Export Plug-In . SVG Version: 6.00 Build 0)  -->
<svg version="1.1" id="Layer_1" xmlns="http://www.w3.org/2000/svg" xmlns:xlink="http://www.w3.org/1999/xlink" x="0px" y="0px"
	 viewBox="0 0 1122.4 228.9" style="enable-background:new 0 0 1122.4 228.9;" xml:space="preserve">
<style type="text/css">
	.st0{fill:#FFFFFF;}
</style>
<g>
	<path class="st0" d="M13,218.4c10.8-29.3,21.6-58.7,32.4-88c-15.1-0.5-30.3-0.9-45.4-1.4c7.8-18.2,16-36.7,24.5-55.5
		c8.3-18.3,16.7-36.2,25-53.7c70.8,0.9,119.6,1.3,128.6,0.9c1.2,0,5.6-0.3,11.5,0.5c2.5,0.3,7.1,1.1,12.6,3c1.4,0.5,6.6,2.3,11,4.9
		c11.3,6.7,16.7,18.1,17.4,19.7c10,22.3-3.7,44.1-4.4,45.1c-7.6,11.6-18.2,16.7-23.2,18.7c4.1,1,11.4,3.4,18.5,9.2
		c1.5,1.2,10.7,9,14.8,22c7.6,23.7-8.4,46-10.6,49c-15.1,20.5-37.6,24.8-42.4,25.8c0,0-7.6,0.9-11.5,1.1
		c-6.1,0.3-36.1,0.2-127.5-0.9c15.7-18.1,31.4-36.1,47.1-54.1c-0.1,6.3-0.2,12.6-0.3,18.8c4,0,62.9,0.7,71,0.7c0.6,0,2,0,3.8-0.2
		c1.9-0.2,5.8-0.6,10.3-2.1c2.6-0.9,5.7-2,8.9-4.6c5.2-4.2,7.2-9.6,7.9-11.9c0.9-2.7,2.9-8.4,0.9-15.1c-0.6-2-1.9-5.3-4.7-8.3
		c-6.3-6.9-15.4-7.1-18-7c-0.1,0-0.3,0-0.3,0c-0.1,0-0.1,0-0.1,0c-0.2,0-16.9-0.4-55.6-1.3c3.9-5,7.8-10.1,11.8-15.3
		c4-5.3,7.9-10.5,11.8-15.7c14.7-0.2,25.9-2,31.6-3.7c3-0.9,7.6-2.3,12-6.4c0.3-0.3,0.7-0.7,1.3-1.3c2.1-2.2,5.5-6.6,6.6-12.8
		c0.4-2.3,1.3-7.2-1.2-12.3c-4-8-13.3-9.5-14.5-9.8c-24.7-0.3-49.5-0.6-74.2-0.9c-8,15.5-15.9,31-23.8,46.6
		c12.9,0.1,25.8,0.3,38.8,0.4C81,141.1,47,179.8,13,218.4z"/>
	<g>
		<path class="st0" d="M264,199.1c-8.8-10.8-13.3-24.6-13.3-41.4c0-14.1,3.4-27.3,10.1-39.8c6.8-12.4,16-22.5,27.7-30
			c11.7-7.6,24.6-11.4,38.7-11.4c13.9,0,25.3,4.6,34.2,13.7c8.9,9.1,13.4,22.5,13.4,40.2c0,12.4-3.4,25.3-10.3,38.7
			c-6.9,13.3-16,24.4-27.5,33.1c-11.5,8.7-23.5,13.1-36.1,13.1C285.2,215.3,272.8,209.9,264,199.1z M322.6,182.9
			c5.9-7.2,10.7-16.3,14.5-27.3c3.8-11,5.7-21.7,5.7-32.2c0-16-6.7-24.1-20-24.1c-7.4,0-14.2,3.5-20.3,10.5
			c-6.1,7-11,15.7-14.6,26.1c-3.6,10.4-5.4,20.1-5.4,29.1c0,5.2,1.2,10.1,3.5,14.5c2.3,4.4,5.3,7.9,8.8,10.4c3.5,2.5,7,3.8,10.4,3.8
			C310.9,193.7,316.7,190.1,322.6,182.9z"/>
		<path class="st0" d="M451.7,62.5c-20.4,85.7-32.4,134.6-36,146.9c-0.4,1.1-2.2,2.5-5.5,4.2c-3.3,1.7-5.6,2.6-6.9,2.6
			c-5.1,0-9.9-1.3-14.6-3.8c-4.7-2.5-7.2-6.6-7.6-12.2c0.2-0.4,1.1-2.3,2.7-5.7c1.6-3.4,3.2-8.3,4.9-14.6
			c4.1-15.5,8.9-33.9,14.2-55.2c5.3-21.3,8.9-35.5,10.7-42.7l12.7-51.7c-0.2-1.4-0.3-8.9-0.3-22.5c0.5-2.3,2.6-4.2,6.1-5.7
			c3.5-1.4,6.7-2.2,9.6-2.2c4.5,0,9.2,1.5,13.9,4.6c4.8,3.1,7.3,6.8,7.4,11.1L451.7,62.5z"/>
		<path class="st0" d="M503.4,179.3c0,4.2,0.7,7,2.2,8.7c1.4,1.6,4.1,2.4,8.1,2.4c5.2,0,9.6-1.1,13.1-3.4c3.5-2.3,7.8-5.8,12.8-10.7
			c1.4-1.4,3.1-2.2,4.9-2.2c2.2,0,3.9,1.6,5.1,4.7c1.3,3.2,1.9,6.4,1.9,9.6c0,4.5-1.8,8.9-5.4,13.3c-3.6,4.3-8.8,7.8-15.7,10.5
			c-6.9,2.7-14.9,4.1-24.1,4.1c-12.3,0-21-2.8-26.1-8.4s-7.7-14.2-7.7-25.7c0-1.6,0.8-5.9,2.4-12.7c1.6-6.9,3.7-15.1,6.2-24.6
			l7.6-30.8l-16.5,1.4c-2.2,0-3.8-0.8-4.9-2.4c-1.1-1.6-1.6-3.6-1.6-6c0-4.5,1.6-9,4.9-13.5c0.4-0.5,2.2-1.1,5.4-1.6
			c3.2-0.5,7.2-1.1,11.9-1.6l7.3-0.8l6.2-27.9c1.8-4.7,4.6-8.3,8.3-11c3.7-2.6,7.2-3.9,10.4-3.9c3.6,0,6.7,1.1,9.2,3.2
			c2.5,2.2,3.9,4.7,4.1,7.6l-6.8,28.9c7-0.9,13.6-1.7,19.6-2.3c6-0.6,10.8-0.9,14.2-0.9c6.9,0,10.3,4,10.3,11.9
			c0,3.1-1.3,5.8-3.9,8.3c-2.6,2.4-5.5,3.9-8.5,4.5l-37.9,3.8L503.4,179.3z"/>
		<path class="st0" d="M709.5,40.4c-3.1,2.3-6.4,3.4-10,3.4c-0.9,0-1.9-0.1-2.8-0.3c-1-0.2-3.3-0.3-6.9-0.3c-6.1,0-11.8,1.6-17,4.9
			c-5.2,3.2-8.5,7.6-9.7,13l-4.3,19.2l28.4-1.1c6.5,0,9.7,4,9.7,11.9c0,3.1-1.3,5.8-3.8,8.3c-2.5,2.4-5.3,3.9-8.4,4.5l-31.9,1.6
			l-23,97.7c-1.4,2.9-3.7,5.4-6.8,7.6c-3.1,2.2-6.4,3.2-10,3.2c-3.2,0-6.6-1.2-10-3.7c-3.4-2.4-5.2-5.6-5.4-9.6v-1.6l21.9-92H600
			c-2.9,0-5.1-0.8-6.5-2.3c-1.4-1.5-2.2-3.6-2.2-6.1c0-4.5,1.6-9,4.9-13.5c0.2-0.5,4.7-1.1,13.5-1.6c7.8-0.4,13.2-0.7,16.2-1.1
			l3.8-17c3.8-17.7,10.1-30.2,19.1-37.6c8.9-7.4,21.4-11.1,37.5-11.1c7.4,0,13,0.9,16.9,2.6c3.9,1.7,7.8,4.5,11.8,8.3
			C714.4,33.9,712.6,38.2,709.5,40.4z"/>
		<path class="st0" d="M714.1,196.1c-8.8-10.8-13.3-24.6-13.3-41.4c0-14.1,3-27,9.1-38.7c6-11.7,14.5-21,25.4-27.7
			c10.9-6.8,23.4-10.1,37.5-10.1c15.7,0,26.2,1.4,31.6,4.1c1.6,0.7,3.1,1.9,4.3,3.4c1.3,1.5,1.9,3,1.9,4.5c0,1.8-0.4,3.7-1.2,5.7
			c-0.8,2-2,3.5-3.7,4.6c4.1,0.4,7.7,2.4,10.5,6.1c2.9,3.7,5,8,6.5,12.8c1.4,4.9,2.2,9.1,2.2,12.7c0,12.8-3.1,25.4-9.3,37.9
			s-14.9,22.6-26.1,30.6c-11.2,7.9-24,11.9-38.4,11.9C735.3,212.4,723,206.9,714.1,196.1z M773,181.4c6-5.7,11-13.2,15-22.6
			c4-9.4,6-19.2,6-29.5c0-2-0.7-3.8-2-5.4c-1.4-1.6-3.2-3.3-5.5-5.1c-1.3-0.9-2.4-1.8-3.4-2.8c-1-1-1.5-1.9-1.5-2.8
			c0-0.7,0.2-1.7,0.7-3c0.4-1.3,0.7-2.2,0.7-2.7c0-2.7-3.3-4.1-10-4.1c-7.4,0-14.2,3-20.4,8.9c-6.2,6-11.1,13.5-14.6,22.7
			c-3.5,9.2-5.3,18.2-5.3,27.1c0,5.2,1.2,10,3.5,14.2c2.3,4.2,5.3,7.6,8.8,10s7,3.7,10.4,3.7C761,189.9,766.9,187.1,773,181.4z"/>
		<path class="st0" d="M901.9,62.5c-20.4,85.7-32.4,134.6-36,146.9c-0.4,1.1-2.2,2.5-5.5,4.2c-3.3,1.7-5.6,2.6-6.9,2.6
			c-5.1,0-9.9-1.3-14.6-3.8c-4.7-2.5-7.2-6.6-7.6-12.2c0.2-0.4,1.1-2.3,2.7-5.7c1.6-3.4,3.2-8.3,4.9-14.6
			c4.1-15.5,8.9-33.9,14.2-55.2c5.3-21.3,8.9-35.5,10.7-42.7l12.7-51.7c-0.2-1.4-0.3-8.9-0.3-22.5c0.5-2.3,2.6-4.2,6.1-5.7
			c3.5-1.4,6.7-2.2,9.6-2.2c4.5,0,9.2,1.5,13.9,4.6c4.8,3.1,7.3,6.8,7.4,11.1L901.9,62.5z"/>
		<path class="st0" d="M942.7,94.1c0.2-6.5,1.4-10.8,3.7-13c2.3-2.2,6.1-3.2,11.5-3.2c4.5,0,8.2,1.4,11,4.2
			c2.8,2.8,4.2,6.4,4.2,10.7c0,0.9-0.2,2.3-0.5,4.1l-22.2,97.4l-1.1,7.3c-0.2,2.9-0.6,4.9-1.4,6c-0.7,1.1-2.5,1.9-5.3,2.3
			c-2.8,0.4-7.7,0.7-14.7,0.7c-3.4,0-5.8-0.6-7-1.9c-1.3-1.3-1.9-3.1-1.9-5.4c0-2.2,0.3-4.1,0.8-6c0.4-2.9,0.5-4.8,0.5-5.7
			C920.3,187,927.7,154.6,942.7,94.1z M950,32.7c4.3-5,9.6-7.6,16-7.6c6.5,0,11.6,2,15.3,6c3.7,4,5.6,8.7,5.8,14.3
			c0,5.4-2.3,10.4-7,14.9c-4.7,4.5-10.3,6.8-16.8,6.8s-11.4-1.7-14.7-5c-3.3-3.3-5-7.7-5-13.1C943.5,43.2,945.7,37.8,950,32.7z"/>
		<path class="st0" d="M1003.3,199.1c-8.8-10.8-13.3-24.6-13.3-41.4c0-14.1,3.4-27.3,10.1-39.8c6.8-12.4,16-22.5,27.7-30
			c11.7-7.6,24.6-11.4,38.7-11.4c13.9,0,25.3,4.6,34.2,13.7c8.9,9.1,13.4,22.5,13.4,40.2c0,12.4-3.4,25.3-10.3,38.7
			c-6.9,13.3-16,24.4-27.5,33.1c-11.5,8.7-23.5,13.1-36.1,13.1C1024.5,215.3,1012.1,209.9,1003.3,199.1z M1061.9,182.9
			c5.9-7.2,10.7-16.3,14.5-27.3c3.8-11,5.7-21.7,5.7-32.2c0-16-6.7-24.1-20-24.1c-7.4,0-14.2,3.5-20.3,10.5
			c-6.1,7-11,15.7-14.6,26.1c-3.6,10.4-5.4,20.1-5.4,29.1c0,5.2,1.2,10.1,3.5,14.5c2.3,4.4,5.3,7.9,8.8,10.4c3.5,2.5,7,3.8,10.4,3.8
			C1050.2,193.7,1056,190.1,1061.9,182.9z"/>
	</g>
</g>
</svg>
