<?xml version="1.0" encoding="utf-8"?>
<!-- Generator: Adobe Illustrator 25.0.0, SVG Export Plug-In . SVG Version: 6.00 Build 0)  -->
<svg version="1.1" id="Layer_1" xmlns="http://www.w3.org/2000/svg" xmlns:xlink="http://www.w3.org/1999/xlink" x="0px" y="0px"
	 viewBox="0 0 1092.3 243.9" style="enable-background:new 0 0 1092.3 243.9;" xml:space="preserve">
<style type="text/css">
	.st0{fill:none;}
	.st1{font-family:'Sriracha-Regular';}
	.st2{font-size:250px;}
</style>
<g>
	<path d="M40.8,218.2c10.8-29.3,21.6-58.7,32.4-88c-15.1-0.5-30.3-0.9-45.4-1.4c7.8-18.2,16-36.7,24.5-55.5
		C60.6,55,69,37.1,77.3,19.6c70.8,0.9,119.6,1.3,128.6,0.9c1.2,0,5.6-0.3,11.5,0.5c2.5,0.3,7.1,1.1,12.6,3c1.4,0.5,6.6,2.3,11,4.9
		c11.3,6.7,16.7,18.1,17.4,19.7c10,22.3-3.7,44.1-4.4,45.1c-7.6,11.6-18.2,16.7-23.2,18.7c4.1,1,11.4,3.4,18.5,9.2
		c1.5,1.2,10.7,9,14.8,22c7.6,23.7-8.4,46-10.6,49c-15.1,20.5-37.6,24.8-42.4,25.8c0,0-7.6,0.9-11.5,1.1
		c-6.1,0.3-36.1,0.2-127.5-0.9c15.7-18.1,31.4-36.1,47.1-54.1c-0.1,6.3-0.2,12.6-0.3,18.8c4,0,62.9,0.7,71,0.7c0.6,0,2,0,3.8-0.2
		c1.9-0.2,5.8-0.6,10.3-2.1c2.6-0.9,5.7-2,8.9-4.6c5.2-4.2,7.2-9.6,7.9-11.9c0.9-2.7,2.9-8.4,0.9-15.1c-0.6-2-1.9-5.3-4.7-8.3
		c-6.3-6.9-15.4-7.1-18-7c-0.1,0-0.3,0-0.3,0c-0.1,0-0.1,0-0.1,0c-0.2,0-16.9-0.4-55.6-1.3c3.9-5,7.8-10.1,11.8-15.3
		c4-5.3,7.9-10.5,11.8-15.7c14.7-0.2,25.9-2,31.6-3.7c3-0.9,7.6-2.3,12-6.4c0.3-0.3,0.7-0.7,1.3-1.3c2.1-2.2,5.5-6.6,6.6-12.8
		c0.4-2.3,1.3-7.2-1.2-12.3c-4-8-13.3-9.5-14.5-9.8c-24.7-0.3-49.5-0.6-74.2-0.9c-8,15.5-15.9,31-23.8,46.6
		c12.9,0.1,25.8,0.3,38.8,0.4C108.8,140.9,74.8,179.6,40.8,218.2z"/>
	<g>
		<rect x="271.5" y="14.7" class="st0" width="1206.2" height="251.6"/>
		<text transform="matrix(1 0 0 1 271.4725 208.4638)" class="st1 st2">oltfolio</text>
	</g>
</g>
</svg>
