<?xml version="1.0" encoding="utf-8"?>
<!-- Generator: Adobe Illustrator 25.0.0, SVG Export Plug-In . SVG Version: 6.00 Build 0)  -->
<svg version="1.1" id="Layer_1" xmlns="http://www.w3.org/2000/svg" xmlns:xlink="http://www.w3.org/1999/xlink" x="0px" y="0px"
	 viewBox="0 0 551.8 460.7" style="enable-background:new 0 0 551.8 460.7;" xml:space="preserve">
<style type="text/css">
	.st0{fill:#FFFFFF;}
</style>
<path class="st0" d="M32.7,459.6c24.4-68,48.7-135.9,73.1-203.9c-35-0.8-70-1.5-104.9-2.3c17.7-42.3,36.2-85.2,55.5-128.7
	c18.8-42.4,37.8-84,56.7-124.6c163.5,0.8,276.3,0.8,297-0.3c2.7-0.1,13-0.8,26.6,0.9c5.8,0.7,16.4,2.4,29.1,6.6
	c3.2,1.1,15.2,5.1,25.5,11.1c26.3,15.3,38.9,41.4,40.6,45.2c23.5,51.3-7.7,101.9-9.2,104.2c-17.3,26.9-41.8,39-53.3,43.7
	c9.5,2.3,26.3,7.6,42.8,20.9c3.5,2.8,24.8,20.6,34.7,50.6c18,54.6-18.5,106.5-23.5,113.4c-34.5,47.6-86.3,58.1-97.5,60.3
	c0,0-17.5,2.3-26.6,2.8c-14.1,0.7-83.3,1.2-294.5,0.3c35.9-42,71.9-83.9,107.8-125.9c-0.1,14.5-0.2,29-0.3,43.4
	c9.2,0,145.4,0.5,164.1,0.2c1.4,0,4.6-0.1,8.7-0.5c4.3-0.4,13.4-1.4,23.7-5.1c5.9-2.1,13.1-4.7,20.4-10.7
	c12-9.9,16.4-22.4,18.1-27.6c2.1-6.3,6.6-19.4,1.8-35c-1.4-4.5-4.4-12.2-11-19.1c-14.8-15.8-35.7-16.1-41.8-15.8c-0.3,0-0.6,0-0.8,0
	c-0.2,0-0.3,0-0.3,0c-0.4,0-39.1-0.6-128.4-1.9c18-24,35.9-48,53.9-72c34-0.7,59.9-5.1,72.9-9.1c6.8-2.1,17.6-5.5,27.5-14.9
	c0.7-0.6,1.7-1.7,3-3c4.8-5.2,12.5-15.3,15-29.8c0.9-5.3,2.8-16.7-3.1-28.3c-9.4-18.4-31-21.8-33.7-22.3
	c-57.1-0.2-114.3-0.5-171.4-0.7c-18.1,36-36.1,72-54.2,108c29.9,0,59.7,0.1,89.6,0.1C188.4,279.7,110.6,369.7,32.7,459.6z"/>
</svg>
