<?xml version="1.0" encoding="utf-8"?>
<!-- Generator: Adobe Illustrator 25.0.0, SVG Export Plug-In . SVG Version: 6.00 Build 0)  -->
<svg version="1.1" id="Layer_1" xmlns="http://www.w3.org/2000/svg" xmlns:xlink="http://www.w3.org/1999/xlink" x="0px" y="0px"
	 viewBox="0 0 84.4 84.3" style="enable-background:new 0 0 84.4 84.3;" xml:space="preserve">
<style type="text/css">
	.st0{display:none;fill:#FFFFFF;stroke:#070605;stroke-width:1.5717;stroke-miterlimit:10;}
	.st1{display:none;fill:#FFFFFF;stroke:#1D1D1B;stroke-width:11.0018;stroke-miterlimit:10;}
	.st2{fill:#090A0A;}
</style>
<g id="Layer_2_1_">
	<g id="Layer_1-2">
		<circle class="st0" cx="42.3" cy="44.5" r="61.9"/>
		<circle class="st1" cx="42.3" cy="44.5" r="60.2"/>
		<path class="st2" d="M68.4,45.9c1.7,2.8,2.7,6.1,2.5,9.4c0,0.6,0,1.1,0,1.7c-1.4,9.3-5.3,15.7-11.5,19.6c-6.8,3.9-14.5,6-22.2,5.8
			c-2.4,0-4.7-0.3-7.1-0.8c-2.2-0.3-4.2-1.1-6.1-2c-1.9,0.9-4.1,1.4-6.3,1.3c-1.7,0.2-3.5-0.8-4.2-2.4c-0.9-1.9-1.3-3.9-1.3-6
			c0-0.8,0.2-1.6,0.3-2.4l12.6-50.8c-5.3,1.7-8.6,3.8-9.9,5.7c-2.4-2.5-3.5-4.9-3.5-6.9c0-1.9,0.8-3.6,1.9-5c3-1.9,7.9-3.8,14.8-5.5
			c0.5-1.3,1.3-2.5,2.4-3.3c1.3-0.6,2.8-0.9,4.2-0.9c1.6,0,3,0.2,4.4,0.5c1.1,0.2,2.2,0.6,3,1.4c3.6-0.5,7.4-0.6,11-0.6
			c7.7,0,13.4,1.6,17,4.6c3.6,3.1,5.7,7.9,5.3,12.7c0,4.4-1.7,8.6-4.9,11.8c-3.5,3.5-7.7,5.8-12.4,7.1
			C63.2,41.5,66.6,43.2,68.4,45.9z M45.4,69.6c3-1.1,5.7-3,7.9-5.3c2-2.2,3.1-5.2,3-8.2c0-2.5-0.9-4.9-2.7-6.6c-2-1.9-4.7-3-7.4-2.8
			c-4.2-0.2-8.6,0.2-12.9,0.6c-1.3,4.1-3.1,11.6-6,22.6c2.7,0.9,5.3,1.4,8.2,1.4C39,71.5,42.3,70.9,45.4,69.6z M60,23.2
			c0.2-2-0.6-4.1-2.2-5.5c-1.4-1.3-3.9-2-7.4-2c-3.1,0-6.6,0.2-10.4,0.6l-5,21.4C51.7,36.3,60,31.4,60,23.2z"/>
	</g>
</g>
</svg>
