<?xml version="1.0" encoding="utf-8"?>
<!-- Generator: Adobe Illustrator 25.0.0, SVG Export Plug-In . SVG Version: 6.00 Build 0)  -->
<svg version="1.1" id="Layer_1" xmlns="http://www.w3.org/2000/svg" xmlns:xlink="http://www.w3.org/1999/xlink" x="0px" y="0px"
	 viewBox="0 0 84.4 84.3" style="enable-background:new 0 0 84.4 84.3;" xml:space="preserve">
<style type="text/css">
	.st0{fill:#FFFFFF;stroke:#070605;stroke-miterlimit:10;}
	.st1{fill:#FFFFFF;stroke:#1D1D1B;stroke-width:7;stroke-miterlimit:10;}
	.st2{fill:#090A0A;}
</style>
<g id="Layer_2_1_">
	<g id="Layer_1-2">
		<circle class="st0" cx="42.3" cy="42.1" r="39.4"/>
		<circle class="st1" cx="42.3" cy="42.1" r="38.3"/>
		<path class="st2" d="M58.9,43c1.1,1.8,1.7,3.9,1.6,6c0,0.4,0,0.7,0,1.1c-0.9,5.9-3.4,10-7.3,12.5c-4.3,2.5-9.2,3.8-14.1,3.7
			c-1.5,0-3-0.2-4.5-0.5c-1.4-0.2-2.7-0.7-3.9-1.3c-1.2,0.6-2.6,0.9-4,0.8c-1.1,0.1-2.2-0.5-2.7-1.5c-0.6-1.2-0.8-2.5-0.8-3.8
			c0-0.5,0.1-1,0.2-1.5l8-32.3c-3.4,1.1-5.5,2.4-6.3,3.6c-1.5-1.6-2.2-3.1-2.2-4.4c0-1.2,0.5-2.3,1.2-3.2c1.9-1.2,5-2.4,9.4-3.5
			c0.3-0.8,0.8-1.6,1.5-2.1c0.8-0.4,1.8-0.6,2.7-0.6c1,0,1.9,0.1,2.8,0.3c0.7,0.1,1.4,0.4,1.9,0.9c2.3-0.3,4.7-0.4,7-0.4
			c4.9,0,8.5,1,10.8,2.9c2.3,2,3.6,5,3.4,8.1c0,2.8-1.1,5.5-3.1,7.5c-2.2,2.2-4.9,3.7-7.9,4.5C55.6,40.2,57.8,41.3,58.9,43z
			 M44.3,58.1c1.9-0.7,3.6-1.9,5-3.4c1.3-1.4,2-3.3,1.9-5.2c0-1.6-0.6-3.1-1.7-4.2c-1.3-1.2-3-1.9-4.7-1.8c-2.7-0.1-5.5,0.1-8.2,0.4
			c-0.8,2.6-2,7.4-3.8,14.4c1.7,0.6,3.4,0.9,5.2,0.9C40.2,59.3,42.3,58.9,44.3,58.1z M53.6,28.6c0.1-1.3-0.4-2.6-1.4-3.5
			c-0.9-0.8-2.5-1.3-4.7-1.3c-2,0-4.2,0.1-6.6,0.4l-3.2,13.6C48.3,36.9,53.6,33.8,53.6,28.6z"/>
	</g>
</g>
</svg>
