<svg xmlns="http://www.w3.org/2000/svg" viewBox="0 0 79.81 79.81"><defs><style>.cls-1{fill:#fff;stroke:#070605;stroke-miterlimit:10;}.cls-2{fill:#090a0a;}</style></defs><g id="Layer_2" data-name="Layer 2"><g id="Layer_1-2" data-name="Layer 1"><circle class="cls-1" cx="39.9" cy="39.9" r="39.4"/><path class="cls-2" d="M56.43,40.81a11,11,0,0,1,1.62,6A5.64,5.64,0,0,1,58,47.9q-1.36,8.79-7.34,12.5a26.23,26.23,0,0,1-14.11,3.7,23.86,23.86,0,0,1-4.5-.46,13.05,13.05,0,0,1-3.93-1.34,7.22,7.22,0,0,1-4,.8,2.81,2.81,0,0,1-2.73-1.55,8.19,8.19,0,0,1-.8-3.78,5.35,5.35,0,0,1,.22-1.51L28.81,24c-3.4,1.15-5.52,2.35-6.33,3.6C21,26,20.25,24.55,20.25,23.21A5.42,5.42,0,0,1,21.47,20q2.88-1.87,9.36-3.53a4.12,4.12,0,0,1,1.48-2.09,5.12,5.12,0,0,1,2.7-.57,13.61,13.61,0,0,1,2.84.28,3.87,3.87,0,0,1,1.91.87,55.78,55.78,0,0,1,7-.43q7.35,0,10.8,2.91A10,10,0,0,1,61,25.51,10.31,10.31,0,0,1,57.9,33,17.1,17.1,0,0,1,50,37.46Q54.81,38.26,56.43,40.81ZM41.88,55.93a12.73,12.73,0,0,0,5-3.38,7.56,7.56,0,0,0,1.94-5.15,5.85,5.85,0,0,0-1.69-4.21,6.22,6.22,0,0,0-4.72-1.77,54,54,0,0,0-8.21.44q-1.14,3.89-3.81,14.4a14.77,14.77,0,0,0,5.18.86A17.31,17.31,0,0,0,41.88,55.93Zm9.25-29.55a4.53,4.53,0,0,0-1.36-3.5c-.92-.83-2.48-1.26-4.68-1.26q-3,0-6.56.36L35.37,35.59Q51.14,34.3,51.13,26.38Z"/></g></g></svg>